<svg xmlns="http://www.w3.org/2000/svg" viewBox="6 -24 331 162">
  <g fill="none">
    <path fill="#fff" d="M0 0h805.1009v502.6366H0z"/>
    <path fill="#e5e5e5" d="M15-23.791233h313.863v109H15z"/>
    <path fill="#ccc" d="M165.60442 52.607616l15.97794-31.755314c.7447-1.480062 2.54824-2.076186 4.02829-1.331482.57985.291756 1.04943.76371 1.33825 1.345022l15.8175 31.835538c.73722 1.4838.132 3.2843-1.3518 4.021525-.4171.207235-.8767.314505-1.34244.313335l-31.79542-.08023c-1.65685-.00418-2.9966-1.35071-2.99242-3.007556.00118-.465734.11076-.924798.3201-1.340838z"/>
    <path fill="#c9c9c9" d="M140.98595 52.579666L162.5305 9.760994c.7447-1.480061 2.54823-2.076186 4.0283-1.331481.57984.291755 1.04942.763708 1.33825 1.345021l21.3282 42.926846c.73723 1.4838.13201 3.2843-1.35179 4.021525-.41709.207235-.8767.314505-1.34244.313335l-42.87276-.108176c-1.65684-.004184-2.9966-1.350714-2.99242-3.00756.00118-.465734.11077-.924798.32011-1.340838z"/>
    <path fill="#e5e5e5" d="M15 90.44209h73.054945v46.00846H15z"/>
    <path fill="#ccc" d="M48.19554 124.3229l8.47965-16.85287c.49647-.98671 1.69882-1.38413 2.68553-.88766.386565.19451.69962.50914.89217.89668l8.394495 16.89545c.491485.9892.088005 2.18953-.901195 2.68101-.27806.13816-.58447.20967-.89496.20889l-16.87414-.04258c-1.10457-.00278-1.997737-.90047-1.99495-2.00504.000783-.31048.073846-.61653.2134-.89388z"/>
    <path fill="#c9c9c9" d="M34.347586 124.30724L45.95852 101.2311c.49647-.98671 1.698824-1.38412 2.68553-.88765.386567.1945.69962.50913.89217.89668l11.49434 23.13443c.49148.9892.088005 2.18954-.901196 2.68102-.27806.13815-.584464.20967-.894954.20889l-23.10528-.0583c-1.104564-.00279-1.997732-.90047-1.994946-2.00504.000784-.31049.073846-.61653.213402-.89389z"/>
    <path fill="#e5e5e5" d="M255.4655 90.80199h73.054945v46.00846H255.4655z"/>
    <path fill="#ccc" d="M288.66105 124.6828l8.47965-16.85287c.49647-.98671 1.69882-1.38413 2.68553-.88766.38657.19451.69962.50914.89217.89668l8.3945 16.89545c.4915.9892.088 2.18953-.9012 2.68101-.27806.13816-.58447.20967-.89495.20889l-16.87415-.04257c-1.10457-.00279-1.99773-.90048-1.99495-2.00504.00079-.31049.07385-.61654.2134-.89389z"/>
    <path fill="#c9c9c9" d="M274.8131 124.66714l11.61093-23.07614c.49647-.98671 1.69883-1.38412 2.68553-.88765.38657.1945.69962.50914.89217.89668l11.49434 23.13443c.49149.9892.08801 2.18954-.90119 2.68102-.27808.13815-.58448.20967-.89496.20889l-23.10528-.0583c-1.10456-.00279-1.99774-.90047-1.99494-2.00504.00078-.31049.07384-.61653.2134-.89389z"/>
    <path fill="#e5e5e5" d="M95.49187 90.80199h73.054945v46.00846H95.49187z"/>
    <path fill="#ccc" d="M128.68741 124.6828l8.47965-16.85287c.49647-.98671 1.69882-1.38413 2.68553-.88766.38657.19451.69962.50914.89217.89668l8.3945 16.89545c.49148.9892.088 2.18953-.9012 2.68101-.27806.13816-.58446.20967-.89496.20889l-16.87414-.04257c-1.10456-.00279-1.99774-.90048-1.99495-2.00504.00079-.31049.07385-.61654.2134-.89389z"/>
    <path fill="#c9c9c9" d="M114.83946 124.66714L126.4504 101.591c.49646-.98671 1.69881-1.38412 2.68552-.88765.38657.1945.69962.50914.89217.89668l11.49434 23.13443c.49148.9892.08801 2.18954-.90119 2.68102-.27806.13815-.58447.20967-.89496.20889l-23.10528-.0583c-1.10456-.00279-1.99773-.90047-1.99494-2.00504.00078-.31049.07384-.61653.2134-.89389z"/>
    <path fill="#e5e5e5" d="M175.60616 90.80199h73.054945v46.00846H175.60616z"/>
    <path fill="#ccc" d="M208.8017 124.6828l8.47965-16.85287c.49647-.98671 1.69882-1.38413 2.68553-.88766.38656.19451.69962.50914.89216.89668l8.3945 16.89545c.49149.9892.08801 2.18953-.90119 2.68101-.27805.13816-.58447.20967-.89495.20889l-16.87416-.04257c-1.10456-.00279-1.99774-.90048-1.99494-2.00504.00078-.31049.07384-.61654.2134-.89389z"/>
    <path fill="#c9c9c9" d="M194.95374 124.66714l11.61094-23.07614c.49647-.98671 1.69882-1.38412 2.68552-.88765.38657.1945.69963.50914.89218.89668l11.49434 23.13443c.49148.9892.088 2.18954-.9012 2.68102-.27806.13815-.58447.20967-.89496.20889l-23.10526-.0583c-1.10458-.00279-1.99775-.90047-1.99496-2.00504.00078-.31049.07385-.61653.2134-.89389z"/>
    <text fill="#acacac" fill-opacity=".7544146" transform="translate(11.4 105.61023)">
      <tspan x="5.5884344" y="13" font-family="Helvetica Neue" font-size="14" font-weight="500" textLength="8.4">&lt;</tspan>
    </text>
    <text fill="#acacac" fill-opacity=".7544146" transform="rotate(-180 165.879975 62.06294)">
      <tspan x="5.5884344" y="13" font-family="Helvetica Neue" font-size="14" font-weight="500" textLength="8.4">&lt;</tspan>
    </text>
    <text fill="#acacac" fill-opacity=".7544146" transform="rotate(-180 165.879975 22.2201625)">
      <tspan x="5.5884344" y="13" font-family="Helvetica Neue" font-size="14" font-weight="500" textLength="8.4">&lt;</tspan>
    </text>
    <text fill="#acacac" fill-opacity=".7544146" transform="translate(11.4 25.392524)">
      <tspan x="5.5884344" y="13" font-family="Helvetica Neue" font-size="14" font-weight="500" textLength="8.4">&lt;</tspan>
    </text>
  </g>
</svg>
