<svg xmlns="http://www.w3.org/2000/svg" viewBox="479 342 199 47">
  <g fill="none">
    <path fill="#fff" d="M0 0h197.6643v46.00846H0z"/>
    <path fill="#e5e5e5" d="M479.42016 342.5h46.00846v46.00846h-46.00846z"/>
    <path fill="#ccc" d="M499.0924 377.3709l8.4797-16.85287c.49644-.9867 1.6988-1.38413 2.6855-.88763.3866.1945.6996.5091.8922.89666l8.3945 16.89544c.49145.9892.088 2.18953-.9012 2.681-.2781.13817-.5845.2097-.895.2089l-16.8741-.04257c-1.1046-.00279-1.99776-.90047-1.995-2.00503.0008-.3105.0739-.61654.2134-.8939z"/>
    <path fill="#c9c9c9" d="M485.24447 377.35524l11.61093-23.07614c.4965-.9867 1.6988-1.3841 2.68554-.88765.38656.1945.69961.50915.89216.89668l11.49434 23.13444c.49146.9892.08801 2.18953-.90119 2.68103-.27805.13814-.58445.20966-.89495.20887l-23.1053-.05829c-1.10455-.00278-1.9977-.90048-1.99493-2.00504.00078-.31049.07383-.61654.2134-.8939z"/>
    <path fill="#e5e5e5" d="M529.76107 342.5h46.00846v46.00846h-46.00846z"/>
    <path fill="#ccc" d="M549.43333 377.3709l8.47967-16.85287c.49645-.9867 1.6988-1.38413 2.6855-.88763.3866.1945.6996.5091.8922.89666l8.3945 16.89544c.49146.9892.088 2.18953-.9012 2.681-.2781.13817-.5845.2097-.895.2089l-16.8741-.04257c-1.1046-.00279-1.99775-.90047-1.99497-2.00503.00077-.3105.07387-.61654.2134-.8939z"/>
    <path fill="#c9c9c9" d="M535.5854 377.35524l11.6109-23.07614c.4965-.9867 1.69884-1.3841 2.68554-.88765.38656.1945.69962.50915.89216.89668l11.49435 23.13444c.49149.9892.08801 2.18953-.90119 2.68103-.27806.13814-.58446.20966-.89496.20887l-23.1053-.05829c-1.10454-.00278-1.9977-.90048-1.9949-2.00504.00076-.31049.0738-.61654.2134-.8939z"/>
    <path fill="#e5e5e5" d="M580.102 342.5h46.00846v46.00846H580.102z"/>
    <path fill="#ccc" d="M599.77424 377.3709l8.47966-16.85287c.49646-.9867 1.6988-1.38413 2.6855-.88763.3866.1945.69964.5091.8922.89666l8.3945 16.89544c.4915.9892.088 2.18953-.9012 2.681-.2781.13817-.5845.2097-.895.2089l-16.8741-.04257c-1.1046-.00279-1.99774-.90047-1.99496-2.00503.00076-.3105.07386-.61654.2134-.8939z"/>
    <path fill="#c9c9c9" d="M585.9263 377.35524l11.6109-23.07614c.4965-.9867 1.69885-1.3841 2.68555-.88765.38655.1945.69965.50915.89215.89668l11.49436 23.13444c.49149.9892.08804 2.18953-.90116 2.68103-.2781.13814-.5845.20966-.895.20887l-23.1053-.05829c-1.1045-.00278-1.9977-.90048-1.9949-2.00504.0008-.31049.0738-.61654.2134-.8939z"/>
    <path fill="#e5e5e5" d="M631.076 342.5h46.00846v46.00846H631.076z"/>
    <path fill="#ccc" d="M650.7483 377.3709l8.4796-16.85287c.4965-.9867 1.6988-1.38413 2.68554-.88763.38656.1945.69966.5091.89216.89666l8.3945 16.89544c.4915.9892.088 2.18953-.9012 2.681-.27805.13817-.58445.2097-.89494.2089l-16.87416-.04257c-1.10455-.00279-1.9977-.90047-1.9949-2.00503.00075-.3105.0738-.61654.2134-.8939z"/>
    <path fill="#c9c9c9" d="M636.9003 377.35524l11.61095-23.07614c.49645-.9867 1.69885-1.3841 2.68555-.88765.38654.1945.6996.50915.89214.89668l11.49436 23.13444c.4915.9892.088 2.18953-.9012 2.68103-.2781.13814-.5845.20966-.895.20887l-23.10524-.05829c-1.10456-.00278-1.99776-.90048-1.99496-2.00504.0008-.31049.07385-.61654.2134-.8939z"/>
  </g>
</svg>
